<mxfile host="app.diagrams.net" agent="Mozilla/5.0 (Windows NT 10.0; Win64; x64) AppleWebKit/537.36 (KHTML, like Gecko) Chrome/127.0.0.0 Safari/537.36 OPR/113.0.0.0" version="24.7.7">
  <diagram name="Page-1" id="w7yyLiptZkBeQV-50wmj">
    <mxGraphModel dx="2532" dy="1945" grid="1" gridSize="10" guides="1" tooltips="1" connect="1" arrows="1" fold="1" page="1" pageScale="1" pageWidth="850" pageHeight="1100" math="0" shadow="0">
      <root>
        <mxCell id="0" />
        <mxCell id="1" parent="0" />
        <mxCell id="fzzXEEKIMQ2JT5vaRbca-23" value="" style="rounded=0;whiteSpace=wrap;html=1;" vertex="1" parent="1">
          <mxGeometry x="-20" y="-50" width="680" height="580" as="geometry" />
        </mxCell>
        <mxCell id="fzzXEEKIMQ2JT5vaRbca-18" value="" style="whiteSpace=wrap;html=1;" vertex="1" parent="1">
          <mxGeometry x="137.5" y="140" width="365" height="350" as="geometry" />
        </mxCell>
        <mxCell id="fzzXEEKIMQ2JT5vaRbca-19" value="" style="edgeStyle=orthogonalEdgeStyle;rounded=0;orthogonalLoop=1;jettySize=auto;html=1;" edge="1" parent="1" source="fzzXEEKIMQ2JT5vaRbca-2" target="fzzXEEKIMQ2JT5vaRbca-3">
          <mxGeometry relative="1" as="geometry" />
        </mxCell>
        <mxCell id="fzzXEEKIMQ2JT5vaRbca-2" value="Amazon RDS" style="sketch=0;outlineConnect=0;fontColor=#232F3E;gradientColor=none;strokeColor=#ffffff;fillColor=#232F3E;dashed=0;verticalLabelPosition=middle;verticalAlign=bottom;align=center;html=1;whiteSpace=wrap;fontSize=10;fontStyle=1;spacing=3;shape=mxgraph.aws4.productIcon;prIcon=mxgraph.aws4.rds;" vertex="1" parent="1">
          <mxGeometry x="271" y="370" width="80" height="100" as="geometry" />
        </mxCell>
        <mxCell id="fzzXEEKIMQ2JT5vaRbca-3" value="" style="sketch=0;points=[[0,0,0],[0.25,0,0],[0.5,0,0],[0.75,0,0],[1,0,0],[0,1,0],[0.25,1,0],[0.5,1,0],[0.75,1,0],[1,1,0],[0,0.25,0],[0,0.5,0],[0,0.75,0],[1,0.25,0],[1,0.5,0],[1,0.75,0]];outlineConnect=0;fontColor=#232F3E;fillColor=#ED7100;strokeColor=#ffffff;dashed=0;verticalLabelPosition=bottom;verticalAlign=top;align=center;html=1;fontSize=12;fontStyle=0;aspect=fixed;shape=mxgraph.aws4.resourceIcon;resIcon=mxgraph.aws4.ec2;" vertex="1" parent="1">
          <mxGeometry x="272" y="230" width="78" height="78" as="geometry" />
        </mxCell>
        <mxCell id="fzzXEEKIMQ2JT5vaRbca-9" value="Frontend and model" style="text;html=1;align=center;verticalAlign=middle;whiteSpace=wrap;rounded=0;" vertex="1" parent="1">
          <mxGeometry x="280" y="200" width="60" height="30" as="geometry" />
        </mxCell>
        <mxCell id="fzzXEEKIMQ2JT5vaRbca-20" value="Application Load Balancer" style="sketch=0;outlineConnect=0;fontColor=#232F3E;gradientColor=none;strokeColor=#ffffff;fillColor=#232F3E;dashed=0;verticalLabelPosition=middle;verticalAlign=bottom;align=center;html=1;whiteSpace=wrap;fontSize=10;fontStyle=1;spacing=3;shape=mxgraph.aws4.productIcon;prIcon=mxgraph.aws4.application_load_balancer;" vertex="1" parent="1">
          <mxGeometry x="280" width="80" height="110" as="geometry" />
        </mxCell>
        <mxCell id="fzzXEEKIMQ2JT5vaRbca-29" value="" style="edgeStyle=orthogonalEdgeStyle;rounded=0;orthogonalLoop=1;jettySize=auto;html=1;" edge="1" parent="1" source="fzzXEEKIMQ2JT5vaRbca-24" target="fzzXEEKIMQ2JT5vaRbca-26">
          <mxGeometry relative="1" as="geometry" />
        </mxCell>
        <mxCell id="fzzXEEKIMQ2JT5vaRbca-24" value="" style="sketch=0;points=[[0,0,0],[0.25,0,0],[0.5,0,0],[0.75,0,0],[1,0,0],[0,1,0],[0.25,1,0],[0.5,1,0],[0.75,1,0],[1,1,0],[0,0.25,0],[0,0.5,0],[0,0.75,0],[1,0.25,0],[1,0.5,0],[1,0.75,0]];outlineConnect=0;fontColor=#232F3E;fillColor=#8C4FFF;strokeColor=#ffffff;dashed=0;verticalLabelPosition=bottom;verticalAlign=top;align=center;html=1;fontSize=12;fontStyle=0;aspect=fixed;shape=mxgraph.aws4.resourceIcon;resIcon=mxgraph.aws4.route_53;" vertex="1" parent="1">
          <mxGeometry x="269.5" y="-170" width="78" height="78" as="geometry" />
        </mxCell>
        <mxCell id="fzzXEEKIMQ2JT5vaRbca-28" value="" style="edgeStyle=orthogonalEdgeStyle;rounded=0;orthogonalLoop=1;jettySize=auto;html=1;" edge="1" parent="1" source="fzzXEEKIMQ2JT5vaRbca-26" target="fzzXEEKIMQ2JT5vaRbca-9">
          <mxGeometry relative="1" as="geometry" />
        </mxCell>
        <mxCell id="fzzXEEKIMQ2JT5vaRbca-26" value="" style="rounded=0;whiteSpace=wrap;html=1;" vertex="1" parent="1">
          <mxGeometry x="227.5" y="-20" width="165" height="140" as="geometry" />
        </mxCell>
        <mxCell id="fzzXEEKIMQ2JT5vaRbca-27" value="Application Load Balancer" style="sketch=0;outlineConnect=0;fontColor=#232F3E;gradientColor=none;strokeColor=#ffffff;fillColor=#232F3E;dashed=0;verticalLabelPosition=middle;verticalAlign=bottom;align=center;html=1;whiteSpace=wrap;fontSize=10;fontStyle=1;spacing=3;shape=mxgraph.aws4.productIcon;prIcon=mxgraph.aws4.application_load_balancer;" vertex="1" parent="1">
          <mxGeometry x="267.5" width="80" height="110" as="geometry" />
        </mxCell>
        <mxCell id="fzzXEEKIMQ2JT5vaRbca-32" value="" style="edgeStyle=orthogonalEdgeStyle;rounded=0;orthogonalLoop=1;jettySize=auto;html=1;" edge="1" parent="1" source="fzzXEEKIMQ2JT5vaRbca-31" target="fzzXEEKIMQ2JT5vaRbca-24">
          <mxGeometry relative="1" as="geometry" />
        </mxCell>
        <mxCell id="fzzXEEKIMQ2JT5vaRbca-31" value="" style="sketch=0;outlineConnect=0;fontColor=#232F3E;gradientColor=none;fillColor=#232F3D;strokeColor=none;dashed=0;verticalLabelPosition=bottom;verticalAlign=top;align=center;html=1;fontSize=12;fontStyle=0;aspect=fixed;pointerEvents=1;shape=mxgraph.aws4.user;" vertex="1" parent="1">
          <mxGeometry x="269.5" y="-300" width="78" height="78" as="geometry" />
        </mxCell>
      </root>
    </mxGraphModel>
  </diagram>
</mxfile>
